<?xml version="1.0" standalone="no"?>
<!DOCTYPE svg PUBLIC "-//W3C//DTD SVG 20010904//EN"
 "http://www.w3.org/TR/2001/REC-SVG-20010904/DTD/svg10.dtd">
<svg version="1.0" xmlns="http://www.w3.org/2000/svg"
 width="417.000000pt" height="417.000000pt" viewBox="0 0 417.000000 417.000000"
 preserveAspectRatio="xMidYMid meet">
<metadata>
Created by potrace 1.14, written by Peter Selinger 2001-2017
</metadata>
<g transform="translate(0.000000,417.000000) scale(0.100000,-0.100000)"
fill="#000000" stroke="none">
<path d="M2077 4163 l2083 -3 3 -2083 2 -2082 3 2088 2 2087 -2087 -2 -2088
-3 2082 -2z"/>
<path d="M1580 2940 l0 -80 500 0 500 0 0 80 0 80 -500 0 -500 0 0 -80z"/>
<path d="M1200 1890 l0 -750 80 0 80 0 0 750 0 750 -80 0 -80 0 0 -750z"/>
<path d="M2800 1890 l0 -750 80 0 80 0 0 750 0 750 -80 0 -80 0 0 -750z"/>
</g>
</svg>
